<svg width="40" height="40" viewBox="0 0 40 40" fill="none" xmlns="http://www.w3.org/2000/svg">
<rect width="40" height="40" rx="20" fill="#D3F8DF"/>
<path d="M20 23C20.8333 23 21.5417 22.7083 22.125 22.125C22.7083 21.5417 23 20.8333 23 20C23 19.1667 22.7083 18.4583 22.125 17.875C21.5417 17.2917 20.8333 17 20 17C19.1667 17 18.4583 17.2917 17.875 17.875C17.2917 18.4583 17 19.1667 17 20C17 20.8333 17.2917 21.5417 17.875 22.125C18.4583 22.7083 19.1667 23 20 23ZM11 27C10.45 27 9.97917 26.8042 9.5875 26.4125C9.19583 26.0208 9 25.55 9 25V15C9 14.45 9.19583 13.9792 9.5875 13.5875C9.97917 13.1958 10.45 13 11 13H29C29.55 13 30.0208 13.1958 30.4125 13.5875C30.8042 13.9792 31 14.45 31 15V25C31 25.55 30.8042 26.0208 30.4125 26.4125C30.0208 26.8042 29.55 27 29 27H11ZM11 17C11.55 17 12.0208 16.8042 12.4125 16.4125C12.8042 16.0208 13 15.55 13 15H11V17ZM29 17V15H27C27 15.55 27.1958 16.0208 27.5875 16.4125C27.9792 16.8042 28.45 17 29 17ZM11 25H13C13 24.45 12.8042 23.9792 12.4125 23.5875C12.0208 23.1958 11.55 23 11 23V25ZM27 25H29V23C28.45 23 27.9792 23.1958 27.5875 23.5875C27.1958 23.9792 27 24.45 27 25Z" fill="#039855"/>
</svg>
