<svg width="40" height="40" viewBox="0 0 40 40" fill="none" xmlns="http://www.w3.org/2000/svg">
<rect width="40" height="40" rx="20" fill="#FDEAD7"/>
<path fill-rule="evenodd" clip-rule="evenodd" d="M13 11C13 10.4477 13.4477 10 14 10H26C26.5523 10 27 10.4477 27 11V15C27 18.5265 24.3923 21.4439 21 21.9291V28H24C24.5523 28 25 28.4477 25 29C25 29.5523 24.5523 30 24 30H16C15.4477 30 15 29.5523 15 29C15 28.4477 15.4477 28 16 28H19V21.9291C15.6077 21.4439 13 18.5265 13 15V11Z" fill="#EF6820"/>
</svg>
