<svg width="20" height="20" viewBox="0 0 20 20" fill="none" xmlns="http://www.w3.org/2000/svg">
<g clip-path="url(#clip0_124_494)">
<path d="M9.99984 12.5001C11.3805 12.5001 12.4998 11.3808 12.4998 10.0001C12.4998 8.61937 11.3805 7.50008 9.99984 7.50008C8.61913 7.50008 7.49984 8.61937 7.49984 10.0001C7.49984 11.3808 8.61913 12.5001 9.99984 12.5001Z" stroke="#667085" stroke-width="1.66667" stroke-linecap="round" stroke-linejoin="round"/>
<path d="M15.6059 12.2728C15.5051 12.5013 15.475 12.7548 15.5195 13.0005C15.5641 13.2463 15.6812 13.4731 15.8559 13.6516L15.9014 13.6971C16.0422 13.8378 16.154 14.0049 16.2302 14.1888C16.3065 14.3727 16.3457 14.5699 16.3457 14.769C16.3457 14.9681 16.3065 15.1653 16.2302 15.3492C16.154 15.5332 16.0422 15.7003 15.9014 15.841C15.7606 15.9819 15.5935 16.0936 15.4096 16.1699C15.2257 16.2461 15.0285 16.2854 14.8294 16.2854C14.6303 16.2854 14.4331 16.2461 14.2492 16.1699C14.0652 16.0936 13.8981 15.9819 13.7574 15.841L13.712 15.7955C13.5334 15.6209 13.3066 15.5037 13.0609 15.4592C12.8151 15.4146 12.5617 15.4447 12.3332 15.5455C12.1091 15.6416 11.918 15.801 11.7834 16.0043C11.6488 16.2075 11.5766 16.4457 11.5756 16.6895V16.8183C11.5756 17.2201 11.416 17.6055 11.1318 17.8896C10.8477 18.1738 10.4623 18.3334 10.0604 18.3334C9.6586 18.3334 9.27322 18.1738 8.98907 17.8896C8.70492 17.6055 8.54529 17.2201 8.54529 16.8183V16.7501C8.53943 16.4993 8.45826 16.2561 8.31235 16.0521C8.16643 15.8481 7.96252 15.6927 7.72711 15.6061C7.49861 15.5053 7.24515 15.4752 6.99939 15.5198C6.75364 15.5643 6.52687 15.6815 6.34832 15.8561L6.30287 15.9016C6.16215 16.0425 5.99505 16.1542 5.81111 16.2305C5.62717 16.3067 5.43001 16.346 5.2309 16.346C5.03178 16.346 4.83462 16.3067 4.65069 16.2305C4.46675 16.1542 4.29965 16.0425 4.15893 15.9016C4.01805 15.7609 3.9063 15.5938 3.83005 15.4098C3.7538 15.2259 3.71455 15.0287 3.71455 14.8296C3.71455 14.6305 3.7538 14.4334 3.83005 14.2494C3.9063 14.0655 4.01805 13.8984 4.15893 13.7577L4.20438 13.7122C4.37903 13.5337 4.49619 13.3069 4.54075 13.0611C4.58531 12.8154 4.55523 12.5619 4.45438 12.3334C4.35835 12.1093 4.19889 11.9183 3.99564 11.7836C3.79239 11.649 3.55422 11.5768 3.31044 11.5758H3.18166C2.77981 11.5758 2.39443 11.4162 2.11028 11.1321C1.82614 10.8479 1.6665 10.4625 1.6665 10.0607C1.6665 9.65884 1.82614 9.27346 2.11028 8.98931C2.39443 8.70517 2.77981 8.54554 3.18166 8.54554H3.24984C3.50059 8.53967 3.74378 8.45851 3.94779 8.31259C4.1518 8.16667 4.3072 7.96276 4.39378 7.72735C4.49462 7.49886 4.5247 7.24539 4.48014 6.99964C4.43558 6.75388 4.31843 6.52711 4.14378 6.34857L4.09832 6.30311C3.95745 6.1624 3.84569 5.99529 3.76944 5.81135C3.69319 5.62742 3.65395 5.43026 3.65395 5.23114C3.65395 5.03203 3.69319 4.83487 3.76944 4.65093C3.84569 4.46699 3.95745 4.29989 4.09832 4.15917C4.23904 4.0183 4.40614 3.90654 4.59008 3.83029C4.77402 3.75405 4.97118 3.7148 5.17029 3.7148C5.36941 3.7148 5.56657 3.75405 5.7505 3.83029C5.93444 3.90654 6.10154 4.0183 6.24226 4.15917L6.28772 4.20463C6.46626 4.37928 6.69303 4.49643 6.93879 4.54099C7.18454 4.58555 7.43801 4.55547 7.6665 4.45463H7.72711C7.95118 4.35859 8.14228 4.19914 8.27688 3.99589C8.41148 3.79264 8.48371 3.55447 8.48469 3.31069V3.1819C8.48469 2.78006 8.64432 2.39467 8.92846 2.11053C9.21261 1.82638 9.59799 1.66675 9.99984 1.66675C10.4017 1.66675 10.7871 1.82638 11.0712 2.11053C11.3554 2.39467 11.515 2.78006 11.515 3.1819V3.25008C11.516 3.49386 11.5882 3.73203 11.7228 3.93528C11.8574 4.13853 12.0485 4.29799 12.2726 4.39402C12.5011 4.49487 12.7545 4.52495 13.0003 4.48039C13.246 4.43583 13.4728 4.31867 13.6514 4.14402L13.6968 4.09857C13.8375 3.95769 14.0046 3.84594 14.1886 3.76969C14.3725 3.69344 14.5697 3.65419 14.7688 3.65419C14.9679 3.65419 15.1651 3.69344 15.349 3.76969C15.5329 3.84594 15.7 3.95769 15.8407 4.09857C15.9816 4.23928 16.0934 4.40639 16.1696 4.59032C16.2459 4.77426 16.2851 4.97142 16.2851 5.17054C16.2851 5.36965 16.2459 5.56681 16.1696 5.75075C16.0934 5.93469 15.9816 6.10179 15.8407 6.24251L15.7953 6.28796C15.6206 6.46651 15.5035 6.69328 15.4589 6.93903C15.4144 7.18478 15.4444 7.43825 15.5453 7.66675V7.72735C15.6413 7.95142 15.8008 8.14252 16.004 8.27712C16.2073 8.41172 16.4455 8.48396 16.6892 8.48493H16.818C17.2199 8.48493 17.6052 8.64456 17.8894 8.92871C18.1735 9.21285 18.3332 9.59824 18.3332 10.0001C18.3332 10.4019 18.1735 10.7873 17.8894 11.0715C17.6052 11.3556 17.2199 11.5152 16.818 11.5152H16.7498C16.5061 11.5162 16.2679 11.5884 16.0646 11.723C15.8614 11.8576 15.7019 12.0487 15.6059 12.2728Z" stroke="#667085" stroke-width="1.66667" stroke-linecap="round" stroke-linejoin="round"/>
</g>
<defs>
<clipPath id="clip0_124_494">
<rect width="20" height="20" fill="white"/>
</clipPath>
</defs>
</svg>
